# xmcd
# 
# Track frame offsets:
#     150
#     18931
#     39313
#     56232
#     75322
#     92609
#     106556
#     118574
#     138134
#     142748
#     156413
# 
# Disc length: 2210
# 
# Revision: 0
# Processed by: cddbd v1.5.2PL0 Copyright (c) Steve Scherf et al.
# Submitted via: fre:ac v1.0.17
# 
DISCID=7808a00b
DTITLE=Barry Big B Brenner - Old School Blues
DYEAR=2009
DGENRE=Blues
TTITLE0=You Don't Know My Mind
TTITLE1=Denver Blues
TTITLE2=Bye Bye Baby Blues
TTITLE3=Spike Driver Blues
TTITLE4=Cat Pause
TTITLE5=Mister Ticket Agent
TTITLE6=Step It Up and Go
TTITLE7=Silver Street Blues
TTITLE8=Grand Canyon Mules
TTITLE9=Hard Pushin' Papa
TTITLE10=I'm Worried
EXTD=
EXTT0=
EXTT1=
EXTT2=
EXTT3=
EXTT4=
EXTT5=
EXTT6=
EXTT7=
EXTT8=
EXTT9=
EXTT10=
PLAYORDER=
